<svg width="176" height="184" viewBox="0 0 176 184" fill="none" xmlns="http://www.w3.org/2000/svg">
<path d="M1.57855 134.972L1.86434 43.7974C1.8881 44.0872 1.99833 44.3655 2.18307 44.6021C2.36781 44.8388 2.61999 45.0247 2.91225 45.1396L2.66728 136.315C2.36826 136.204 2.10845 136.02 1.91638 135.783C1.72431 135.546 1.60742 135.266 1.57855 134.972Z" fill="#141C24"/>
<path d="M174.14 47.3524L173.855 138.539C173.827 138.825 173.716 139.099 173.535 139.332C173.353 139.566 173.106 139.751 172.82 139.869L173.106 48.6823C173.393 48.5654 173.64 48.3803 173.822 48.1464C174.004 47.9125 174.114 47.6383 174.14 47.3524Z" fill="#141C24"/>
<path d="M173.147 48.682L172.862 139.869L93.9022 181.766L94.1879 90.5906L173.147 48.682Z" fill="#141C24"/>
<path d="M89.1119 90.5906L88.8261 181.766L2.62668 136.315L2.91247 45.1399L89.1119 90.5906Z" fill="#141C24"/>
<path d="M94.1878 90.5905L93.8476 181.765C93.0621 182.133 92.1921 182.324 91.3095 182.324C90.4269 182.324 89.5569 182.133 88.7714 181.765L89.0572 90.5905C89.8497 90.9663 90.7295 91.1625 91.6225 91.1625C92.5155 91.1625 93.3953 90.9663 94.1878 90.5905Z" fill="#141C24"/>
<path d="M173.12 45.9851C173.429 46.0766 173.699 46.2551 173.89 46.4952C174.081 46.7352 174.184 47.0244 174.184 47.3211C174.184 47.6179 174.081 47.9071 173.89 48.1471C173.699 48.3872 173.429 48.5657 173.12 48.6572L94.1879 90.5659C93.4024 90.9335 92.5324 91.1252 91.6498 91.1252C90.7672 91.1252 89.8972 90.9335 89.1117 90.5659L2.91235 45.14C2.60491 45.0451 2.33778 44.8645 2.14858 44.6237C1.95937 44.383 1.8576 44.0941 1.8576 43.7977C1.8576 43.5013 1.95937 43.2124 2.14858 42.9716C2.33778 42.7308 2.60491 42.5503 2.91235 42.4554L81.8582 0.559125C82.6413 0.191673 83.509 0 84.3894 0C85.2699 0 86.1376 0.191673 86.9207 0.559125L173.12 45.9851Z" fill="#141C24"/>
<path d="M173.12 45.9851C173.429 46.0766 173.699 46.2551 173.89 46.4952C174.081 46.7352 174.184 47.0244 174.184 47.3211C174.184 47.6179 174.081 47.9071 173.89 48.1471C173.699 48.3872 173.429 48.5657 173.12 48.6572L94.1879 90.5659C93.4024 90.9335 92.5324 91.1252 91.6498 91.1252C90.7672 91.1252 89.8972 90.9335 89.1117 90.5659L2.91235 45.14C2.60491 45.0451 2.33778 44.8645 2.14858 44.6237C1.95937 44.383 1.8576 44.0941 1.8576 43.7977C1.8576 43.5013 1.95937 43.2124 2.14858 42.9716C2.33778 42.7308 2.60491 42.5503 2.91235 42.4554L81.8582 0.559125C82.6413 0.191673 83.509 0 84.3894 0C85.2699 0 86.1376 0.191673 86.9207 0.559125L173.12 45.9851Z" fill="url(#paint0_radial_159_709)" fill-opacity="0.05"/>
<path d="M92.7317 42.575L88.8669 44.6126C88.8245 44.6349 88.8112 44.6686 88.832 44.6958L92.4972 50.4593C92.5353 50.5078 92.6541 50.5176 92.7237 50.4771L103.848 44.6124C103.921 44.5738 103.895 44.5113 103.81 44.4911L92.8783 42.5587C92.8342 42.5477 92.7703 42.5547 92.7317 42.575Z" fill="#57D6FF"/>
<path d="M90.5993 49.4055L87.4677 44.4316C87.4574 44.418 87.4395 44.4045 87.4101 44.3972L73.6871 41.9694C73.5478 41.9285 73.3926 42.0256 73.5082 42.0866L90.3703 49.4881C90.4638 49.5455 90.6544 49.4793 90.5993 49.4055Z" fill="#57D6FF"/>
<path d="M75.0398 47.1607L71.9477 42.3949C71.9299 42.3204 72.1005 42.2762 72.1943 42.3297L90.5481 50.3549C90.6455 50.4103 90.524 50.5048 90.3875 50.4776L76.2218 47.9669C75.5768 47.8343 75.1291 47.5291 75.0398 47.1607Z" fill="#57D6FF"/>
<path d="M101.979 43.3674L87.9408 34.4772C87.8288 34.4182 87.641 34.4981 87.7186 34.5716L92.3234 41.8067C92.3374 41.8222 92.3629 41.8316 92.3887 41.8371L101.823 43.4881C101.963 43.5172 102.088 43.4167 101.979 43.3674Z" fill="#57D6FF"/>
<path d="M99.0901 35.9103L103.852 43.3786C103.907 43.4524 103.728 43.5165 103.619 43.4633L88.3976 33.7869C88.2961 33.7375 88.3836 33.6494 88.5212 33.6569L97.5648 35.2851C98.2636 35.3322 98.8386 35.5703 99.0901 35.9103Z" fill="#57D6FF"/>
<path d="M0.421879 43.2628L0.762104 134.997L0.557969 134.674L92.0513 182.698H91.3708L112.356 171.512L133.423 160.326L154.476 149.215L175.597 138.191C175.605 138.187 175.614 138.185 175.623 138.184C175.632 138.183 175.641 138.183 175.65 138.186C175.659 138.188 175.667 138.192 175.674 138.197C175.682 138.202 175.688 138.209 175.692 138.216C175.697 138.224 175.699 138.232 175.701 138.24C175.702 138.248 175.701 138.257 175.698 138.265C175.696 138.273 175.692 138.28 175.686 138.287C175.68 138.294 175.673 138.299 175.665 138.303L154.83 149.762L133.926 161.122L113.023 172.494L92.0649 183.742C91.9614 183.796 91.8441 183.825 91.7246 183.825C91.6052 183.825 91.4879 183.796 91.3844 183.742L0.204135 135.271C0.142032 135.238 0.0904679 135.191 0.0546324 135.134C0.0187969 135.077 -4.5893e-05 135.013 8.39372e-08 134.948L0.285789 43.2628V43.2007L0.421879 43.2628Z" fill="#00C5FF"/>
<path d="M91.6701 182.3L91.3435 159.792L91.1257 137.271V114.763V92.2431C91.1264 92.1347 91.1582 92.0283 91.2179 91.9346C91.2776 91.8408 91.3631 91.7629 91.466 91.7087L133.531 69.3375C147.589 61.9426 161.648 54.5601 175.787 47.3019C161.933 55.0075 147.998 62.5889 134.062 70.1578L92.0239 92.7776L92.3505 92.2431V114.763L92.2553 137.271L92.0648 159.792L91.6701 182.3Z" fill="#00C5FF"/>
<path d="M113.624 96.6234C113.595 96.6686 113.58 96.7199 113.579 96.7723L114.016 97.0301L134.468 86.1159C141.248 82.4638 148.027 78.8057 154.768 75.0876C147.888 78.5898 141.049 82.1519 134.21 85.7201L113.745 96.5144C113.695 96.5406 113.653 96.5781 113.624 96.6234Z" fill="#00C5FF"/>
<path d="M114.016 97.0301L134.468 86.1159C141.248 82.4638 148.027 78.8057 154.768 75.0876C147.888 78.5898 141.049 82.1519 134.21 85.7201L113.745 96.5144C113.695 96.5406 113.653 96.5781 113.624 96.6234C113.595 96.6686 113.58 96.7199 113.579 96.7723L114.016 97.0301ZM114.016 97.0301L114.175 96.7723" stroke="#00C5FF" stroke-width="0.5"/>
<path d="M113.624 123.267C113.595 123.312 113.58 123.364 113.579 123.416L114.016 123.674L134.468 112.76C141.248 109.108 148.027 105.45 154.768 101.732C147.888 105.234 141.049 108.796 134.21 112.364L113.745 123.158C113.695 123.184 113.653 123.222 113.624 123.267Z" fill="#00C5FF"/>
<path d="M114.016 123.674L134.468 112.76C141.248 109.108 148.027 105.45 154.768 101.732C147.888 105.234 141.049 108.796 134.21 112.364L113.745 123.158C113.695 123.184 113.653 123.222 113.624 123.267C113.595 123.312 113.58 123.364 113.579 123.416L114.016 123.674ZM114.016 123.674L114.175 123.416" stroke="#00C5FF" stroke-width="0.5"/>
<path d="M113.624 149.911C113.595 149.957 113.58 150.008 113.579 150.06L114.016 150.318L134.468 139.404C141.248 135.752 148.027 132.094 154.768 128.376C147.888 131.878 141.049 135.44 134.21 139.008L113.745 149.802C113.695 149.829 113.653 149.866 113.624 149.911Z" fill="#00C5FF"/>
<path d="M114.016 150.318L134.468 139.404C141.248 135.752 148.027 132.094 154.768 128.376C147.888 131.878 141.049 135.44 134.21 139.008L113.745 149.802C113.695 149.829 113.653 149.866 113.624 149.911C113.595 149.957 113.58 150.008 113.579 150.06L114.016 150.318ZM114.016 150.318L114.175 150.06" stroke="#00C5FF" stroke-width="0.5"/>
<path d="M113.624 101.325C113.595 101.37 113.58 101.422 113.579 101.474L114.016 101.732L134.468 90.8177C141.248 87.1657 148.027 83.5077 154.768 79.7897C147.888 83.2918 141.049 86.8539 134.21 90.422L113.745 101.216C113.695 101.242 113.653 101.28 113.624 101.325Z" fill="#00C5FF"/>
<path d="M114.016 101.732L134.468 90.8177C141.248 87.1657 148.027 83.5077 154.768 79.7897C147.888 83.2918 141.049 86.8539 134.21 90.422L113.745 101.216C113.695 101.242 113.653 101.28 113.624 101.325C113.595 101.37 113.58 101.422 113.579 101.474L114.016 101.732ZM114.016 101.732L114.175 101.474" stroke="#00C5FF" stroke-width="0.5"/>
<path d="M113.624 127.969C113.595 128.014 113.58 128.066 113.579 128.118L114.016 128.376L134.468 117.462C141.248 113.81 148.027 110.152 154.768 106.434C147.888 109.936 141.049 113.498 134.21 117.066L113.745 127.86C113.695 127.886 113.653 127.924 113.624 127.969Z" fill="#00C5FF"/>
<path d="M114.016 128.376L134.468 117.462C141.248 113.81 148.027 110.152 154.768 106.434C147.888 109.936 141.049 113.498 134.21 117.066L113.745 127.86C113.695 127.886 113.653 127.924 113.624 127.969C113.595 128.014 113.58 128.066 113.579 128.118L114.016 128.376ZM114.016 128.376L114.175 128.118" stroke="#00C5FF" stroke-width="0.5"/>
<path d="M113.624 154.613C113.595 154.658 113.58 154.71 113.579 154.762L114.016 155.02L134.468 144.106C141.248 140.454 148.027 136.796 154.768 133.078C147.888 136.58 141.049 140.142 134.21 143.71L113.745 154.504C113.695 154.53 113.653 154.568 113.624 154.613Z" fill="#00C5FF"/>
<path d="M114.016 155.02L134.468 144.106C141.248 140.454 148.027 136.796 154.768 133.078C147.888 136.58 141.049 140.142 134.21 143.71L113.745 154.504C113.695 154.53 113.653 154.568 113.624 154.613C113.595 154.658 113.58 154.71 113.579 154.762L114.016 155.02ZM114.016 155.02L114.175 154.762" stroke="#00C5FF" stroke-width="0.5"/>
<path d="M113.624 106.027C113.595 106.072 113.58 106.123 113.579 106.176L114.016 106.434L134.468 95.5194C141.248 91.8674 148.027 88.2093 154.768 84.4913C147.888 87.9934 141.049 91.5555 134.21 95.1236L113.745 105.918C113.695 105.944 113.653 105.982 113.624 106.027Z" fill="#00C5FF"/>
<path d="M114.016 106.434L134.468 95.5194C141.248 91.8674 148.027 88.2093 154.768 84.4913C147.888 87.9934 141.049 91.5555 134.21 95.1236L113.745 105.918C113.695 105.944 113.653 105.982 113.624 106.027C113.595 106.072 113.58 106.123 113.579 106.176L114.016 106.434ZM114.016 106.434L114.175 106.176" stroke="#00C5FF" stroke-width="0.5"/>
<path d="M113.624 132.671C113.595 132.716 113.58 132.768 113.579 132.82L114.016 133.078L134.468 122.164C141.248 118.512 148.027 114.854 154.768 111.136C147.888 114.638 141.049 118.2 134.21 121.768L113.745 132.562C113.695 132.588 113.653 132.626 113.624 132.671Z" fill="#00C5FF"/>
<path d="M114.016 133.078L134.468 122.164C141.248 118.512 148.027 114.854 154.768 111.136C147.888 114.638 141.049 118.2 134.21 121.768L113.745 132.562C113.695 132.588 113.653 132.626 113.624 132.671C113.595 132.716 113.58 132.768 113.579 132.82L114.016 133.078ZM114.016 133.078L114.175 132.82" stroke="#00C5FF" stroke-width="0.5"/>
<path d="M113.624 159.315C113.595 159.36 113.58 159.412 113.579 159.464L114.016 159.722L134.468 148.808C141.248 145.156 148.027 141.498 154.768 137.78C147.888 141.282 141.049 144.844 134.21 148.412L113.745 159.206C113.695 159.232 113.653 159.27 113.624 159.315Z" fill="#00C5FF"/>
<path d="M114.016 159.722L134.468 148.808C141.248 145.156 148.027 141.498 154.768 137.78C147.888 141.282 141.049 144.844 134.21 148.412L113.745 159.206C113.695 159.232 113.653 159.27 113.624 159.315C113.595 159.36 113.58 159.412 113.579 159.464L114.016 159.722ZM114.016 159.722L114.175 159.464" stroke="#00C5FF" stroke-width="0.5"/>
<defs>
<radialGradient id="paint0_radial_159_709" cx="0" cy="0" r="1" gradientUnits="userSpaceOnUse" gradientTransform="translate(69.5492 18.8079) rotate(57.8472) scale(85.4176 180.74)">
<stop stop-color="white"/>
<stop stop-color="white"/>
<stop offset="1" stop-color="white" stop-opacity="0"/>
</radialGradient>
</defs>
</svg>
