<svg width="180" height="26" viewBox="0 0 180 26" fill="none" xmlns="http://www.w3.org/2000/svg">
  <path
    d="M52.3244 21.9066L54.7287 18.3606L57.1099 21.9066C57.3179 22.2021 57.6416 22.3612 58.0115 22.3612H60.1384V6.44974H57.4335V18.3833L56.0695 16.3603L55.6072 15.7011C55.1911 15.0646 54.2432 15.0646 53.8271 15.7011L53.3647 16.3603L52.0007 18.3833V6.44974H49.319V22.3612H51.4228C51.7927 22.3612 52.1163 22.2021 52.3244 21.9066Z"
    fill="#fff" />
  <path
    d="M69.6945 6.4952C69.6252 6.47247 69.5327 6.44974 69.4633 6.44974H63.5219C62.9209 6.44974 62.4585 6.92708 62.4585 7.51808V22.3612H65.1402V18.497C66.1343 18.2924 67.0359 17.906 67.8451 17.3832V22.3612H70.5499V7.51808C70.5499 7.01801 70.18 6.60886 69.6945 6.4952ZM65.1402 15.7466V9.10922H67.8451V13.6553C67.2209 14.6328 66.273 15.3829 65.1402 15.7466Z"
    fill="#fff" />
  <path
    d="M80.1023 6.4952C80.0329 6.47247 79.9404 6.44974 79.8711 6.44974H72.8662V22.3839H75.548V18.497C76.3802 18.3378 77.1431 18.0196 77.8598 17.6332L78.2528 18.3606V22.3839H80.9576V18.3606L79.7324 16.1102C80.2179 15.5647 80.634 14.9737 80.9576 14.3373V7.51808C80.9345 7.01801 80.5878 6.60886 80.1023 6.4952ZM75.548 9.10922H78.2528V13.6553C77.6286 14.6328 76.6808 15.3829 75.548 15.7466V9.10922Z"
    fill="#fff" />
  <path
    d="M90.51 6.4952C90.4407 6.47247 90.3482 6.44974 90.2788 6.44974H84.3374C83.7364 6.44974 83.274 6.92708 83.274 7.51808V22.3612H85.9557V18.497C86.9498 18.2924 87.8514 17.906 88.6605 17.3832C89.8165 16.6331 90.7412 15.5647 91.3423 14.3373V7.51808C91.3423 7.01801 90.9955 6.60886 90.51 6.4952ZM85.9557 15.7466V9.10922H88.6605V13.6553C88.0364 14.6328 87.0885 15.3829 85.9557 15.7466Z"
    fill="#fff" />
  <path
    d="M96.3635 6.44974H93.6817V21.3156C93.6817 21.9066 94.1441 22.3612 94.7452 22.3612H101.75V19.7244H96.3635V6.44974Z"
    fill="#fff" />
  <path
    d="M111.326 6.4952C111.256 6.47247 111.164 6.44974 111.094 6.44974H105.153C104.552 6.44974 104.089 6.92708 104.089 7.51808V22.3612H106.771V18.497C107.765 18.2924 108.667 17.906 109.476 17.3832V22.3612H112.181V7.51808C112.181 7.01801 111.811 6.60886 111.326 6.4952ZM106.771 15.7466V9.10922H109.476V13.6553C108.852 14.6328 107.904 15.3829 106.771 15.7466Z"
    fill="#fff" />
  <path
    d="M121.433 6.44974L118.728 11.7687L116.023 6.44974H113.341L117.387 14.4055V22.3612H120.069V14.4055L124.114 6.44974H121.433Z"
    fill="#fff" />
  <path d="M125.289 19.7244V22.3612H126.907C127.485 22.3612 127.97 21.9066 127.97 21.3156V19.7244H125.289Z"
    fill="#fff" />
  <path
    d="M135.687 19.7244H132.982V9.10922H135.687V11.8142C136.843 11.405 137.814 10.564 138.369 9.49564V7.51808C138.369 6.92708 137.907 6.44974 137.306 6.44974H130.301V22.3612H137.306C137.907 22.3612 138.369 21.9066 138.369 21.3156V14.5873H135.687V19.7244Z"
    fill="#fff" />
  <path
    d="M143.39 6.44974H140.708V21.3156C140.708 21.9066 141.171 22.3612 141.772 22.3612H148.777V19.7244H143.39V6.44974Z"
    fill="#fff" />
  <path
    d="M151.116 7.51808V21.3156C151.116 21.9066 151.579 22.3612 152.18 22.3612H158.121C158.722 22.3612 159.185 21.9066 159.185 21.3156V7.51808C159.185 6.92708 158.722 6.44974 158.121 6.44974H152.18C151.579 6.44974 151.116 6.92708 151.116 7.51808ZM156.503 19.7244H153.798V9.10922H156.503V19.7244Z"
    fill="#fff" />
  <path
    d="M166.911 6.44974V19.7244H164.206V6.44974H161.524V21.3156C161.524 21.9066 161.986 22.3612 162.587 22.3612H168.529C169.13 22.3612 169.592 21.9066 169.592 21.3156V6.44974H166.911Z"
    fill="#fff" />
  <path
    d="M171.932 6.44974V22.3612H178.937C179.538 22.3612 180 21.9066 180 21.3156V7.51808C180 6.92708 179.538 6.44974 178.937 6.44974H171.932ZM177.318 19.7244H174.613V9.10922H177.318V19.7244Z"
    fill="#fff" />
  <path
    d="M18.5555 15.2372H13.2357C13.1773 15.2372 13.1242 15.2735 13.103 15.3255L8.10182 25.8128C8.06465 25.9063 8.13367 26.005 8.23454 25.9998H23.5461C23.6469 25.9998 23.7107 25.8959 23.6788 25.8076L18.6776 15.3203C18.6617 15.2735 18.6086 15.2372 18.5555 15.2372Z"
    fill="#fff" />
  <path
    d="M8.17081 23.0131L12.5084 13.9853C12.519 13.9594 12.5243 13.9282 12.5137 13.897L6.23829 0.729433C6.19582 0.573603 5.96222 0.59438 5.96222 0.760599L7.90536 22.9611C7.89474 23.1066 8.11241 23.1533 8.17081 23.0131Z"
    fill="#fff" />
  <path
    d="M0.392939 8.77543L4.48628 0.059357C4.57122 -0.0549181 4.74642 0.0074136 4.74111 0.14766L6.89662 24.2701C6.89131 24.4155 6.68425 24.4571 6.62585 24.322L0.154029 10.7233C-0.116737 10.0792 -0.0264818 9.34161 0.392939 8.77543Z"
    fill="#fff" />
  <path
    d="M23.8859 22.9611L25.829 0.76058C25.829 0.599556 25.5954 0.573585 25.5529 0.729414L19.2775 13.897C19.2669 13.9282 19.2722 13.9594 19.2828 13.9853L23.6204 23.0131C23.6788 23.1533 23.8965 23.1066 23.8859 22.9611Z"
    fill="#fff" />
  <path
    d="M31.6319 10.7233L25.16 24.322C25.1016 24.4623 24.8946 24.4207 24.8893 24.2701L27.0448 0.147649C27.0395 0.00740212 27.2147 -0.0497353 27.2996 0.0593455L31.3983 8.77542C31.8177 9.3416 31.9026 10.0792 31.6319 10.7233Z"
    fill="#fff" />
</svg>
